<?xml version="1.0" encoding="utf-8"?>
<!-- Generator: Adobe Illustrator 15.0.2, SVG Export Plug-In . SVG Version: 6.00 Build 0)  -->
<!DOCTYPE svg PUBLIC "-//W3C//DTD SVG 1.1//EN" "http://www.w3.org/Graphics/SVG/1.1/DTD/svg11.dtd">
<svg version="1.1" id="レイヤー_2" xmlns="http://www.w3.org/2000/svg" xmlns:xlink="http://www.w3.org/1999/xlink" x="0px"
	 y="0px" width="512px" height="512px" viewBox="0 0 512 512" enable-background="new 0 0 512 512" xml:space="preserve">
<g>
	<g>
		<path d="M395.206,301.262c0,0.443,0.067,0.852,0.067,1.326c0,76.777-62.479,139.274-139.273,139.274
			c-76.794,0-139.274-62.497-139.274-139.274c0-76.801,62.48-139.282,139.274-139.282c1.292,0,2.541,0.153,3.834,0.188V93.856
			c-1.293-0.017-2.542-0.187-3.834-0.187c-115.371,0-208.911,93.541-208.911,208.918C47.089,417.959,140.63,511.5,256,511.5
			s208.911-93.541,208.911-208.912c0-0.441-0.052-0.865-0.067-1.326H395.206z"/>
		<path d="M256,512c-115.47,0-209.411-93.941-209.411-209.412c0-115.474,93.941-209.418,209.411-209.418
			c0.697,0,1.385,0.048,2.051,0.095c0.593,0.042,1.187,0.084,1.79,0.092l0.493,0.006v70.644l-0.514-0.013
			c-0.574-0.015-1.14-0.054-1.704-0.092c-0.692-0.047-1.408-0.096-2.116-0.096c-76.521,0-138.774,62.257-138.774,138.782
			c0,76.521,62.254,138.774,138.774,138.774c76.52,0,138.773-62.254,138.773-138.774c0-0.228-0.017-0.439-0.033-0.647
			c-0.018-0.226-0.034-0.447-0.034-0.679v-0.5h70.621l0.017,0.483c0.006,0.188,0.019,0.37,0.031,0.55
			c0.019,0.266,0.036,0.526,0.036,0.793C465.411,418.059,371.47,512,256,512z M256,94.169
			c-114.918,0-208.411,93.496-208.411,208.418C47.589,417.507,141.082,511,256,511c114.918,0,208.411-93.493,208.411-208.412
			c0-0.243-0.017-0.481-0.033-0.724c-0.003-0.034-0.005-0.068-0.008-0.103H395.73c0.003,0.034,0.005,0.067,0.008,0.102
			c0.019,0.232,0.036,0.47,0.036,0.725c0,77.072-62.702,139.774-139.773,139.774c-77.072,0-139.774-62.702-139.774-139.774
			c0-77.076,62.703-139.782,139.774-139.782c0.742,0,1.475,0.05,2.184,0.098c0.383,0.026,0.765,0.052,1.15,0.071V94.343
			c-0.454-0.018-0.904-0.049-1.354-0.081C257.332,94.217,256.662,94.169,256,94.169z"/>
	</g>
	<g>
		<path d="M260.105,10.437c0-9.571,6.334-12.793,14.086-7.166l152.824,111.087c7.735,5.619,7.735,14.851,0,20.469L274.191,245.921
			c-7.752,5.619-14.086,2.397-14.086-7.174V10.437z"/>
		<path d="M267.091,249.186c-4.617,0-7.486-4-7.486-10.438V10.437C259.605,4,262.472,0,267.087,0c2.257,0,4.814,0.991,7.397,2.865
			l152.824,111.087c3.874,2.814,6.008,6.593,6.008,10.64s-2.134,7.825-6.008,10.639L274.485,246.326
			C271.904,248.197,269.347,249.186,267.091,249.186z M267.087,1c-4.06,0-6.482,3.527-6.482,9.436v228.311
			c0,5.91,2.425,9.438,6.486,9.438c2.044,0,4.397-0.923,6.807-2.669l152.823-111.094c3.608-2.621,5.596-6.111,5.596-9.83
			s-1.987-7.209-5.596-9.831L273.897,3.675C271.487,1.925,269.131,1,267.087,1z"/>
	</g>
</g>
</svg>
