<?xml version="1.0" encoding="utf-8"?>
<!-- Generator: Adobe Illustrator 16.0.0, SVG Export Plug-In . SVG Version: 6.00 Build 0)  -->
<!DOCTYPE svg PUBLIC "-//W3C//DTD SVG 1.1//EN" "http://www.w3.org/Graphics/SVG/1.1/DTD/svg11.dtd">
<svg version="1.1" id="レイヤー_1" xmlns="http://www.w3.org/2000/svg" xmlns:xlink="http://www.w3.org/1999/xlink" x="0px"
	 y="0px" width="512px" height="512px" viewBox="0 0 512 512" enable-background="new 0 0 512 512" xml:space="preserve">
<g id="レイヤー_1_1_" display="none">
	<g id="Ellipse_1" display="inline">
		<g>
			<path d="M255.659,0C111.845,0-0.091,111.936-0.091,255.75c0,143.814,111.936,255.75,255.75,255.75
				c143.813,0,255.75-111.936,255.75-255.75C511.408,111.936,399.473,0,255.659,0z"/>
		</g>
	</g>
	<g id="Ellipse_1_2_" display="inline">
		<g>
			<path fill="#D30D0D" d="M255.659,36.5c-123.289,0-219.25,95.961-219.25,219.25S132.37,475,255.659,475
				c123.29,0,219.25-95.961,219.25-219.25S378.948,36.5,255.659,36.5z"/>
		</g>
	</g>
	<path display="inline" fill="#7E7E7E" d="M256,128"/>
	<path display="inline" fill="#7E7E7E" d="M256,0"/>
</g>
<g id="シェイプ_35">
	<g>
		<path d="M256.522,3.492C117.548,3.492,4.501,116.554,4.501,255.5c0,138.945,113.047,252.007,252.021,252.007
			c138.945,0,251.978-113.062,251.978-252.007C508.5,116.554,395.468,3.492,256.522,3.492z M256.522,473.14
			c-120.011,0-217.654-97.63-217.654-217.64c0-120.011,97.644-217.64,217.654-217.64c119.981,0,217.61,97.629,217.61,217.64
			C474.133,375.51,376.504,473.14,256.522,473.14z M272.302,69.042c0,0-1.448-15.75-15.809-15.808
			c-14.36-0.059-15.476,15.808-15.476,15.808v180.696l-86.02,94.242c0,0-9.481,12.536,1.13,22.206c10.611,9.7,21.989-1.1,21.989-1.1
			l90.305-98.962c0,0,4.546-5.993,3.88-12.913V69.042z"/>
	</g>
</g>
</svg>
