<?xml version="1.0" encoding="utf-8"?>
<!-- Generator: Adobe Illustrator 16.0.0, SVG Export Plug-In . SVG Version: 6.00 Build 0)  -->
<!DOCTYPE svg PUBLIC "-//W3C//DTD SVG 1.1//EN" "http://www.w3.org/Graphics/SVG/1.1/DTD/svg11.dtd">
<svg version="1.1" xmlns="http://www.w3.org/2000/svg" xmlns:xlink="http://www.w3.org/1999/xlink" x="0px" y="0px" width="512px"
	 height="512px" viewBox="0 0 512 512" enable-background="new 0 0 512 512" xml:space="preserve">
<g id="レイヤー_1" display="none">
	<g id="Ellipse_1" display="inline">
		<g>
			<path d="M255.659,0C111.845,0-0.091,111.936-0.091,255.75c0,143.814,111.936,255.75,255.75,255.75s255.75-111.936,255.75-255.75
				C511.408,111.936,399.473,0,255.659,0z"/>
		</g>
	</g>
	<g id="Ellipse_1_2_" display="inline">
		<g>
			<path fill="#D30D0D" d="M255.659,36.5c-123.289,0-219.25,95.961-219.25,219.25S132.37,475,255.659,475
				c123.29,0,219.25-95.961,219.25-219.25S378.948,36.5,255.659,36.5z"/>
		</g>
	</g>
	<path display="inline" fill="#7E7E7E" d="M256,128"/>
	<path fill="#7E7E7E" d="M256,0"/>
</g>
<g id="レイヤー_2">
	<g id="長方形_6_のコピー">
		<g>
			<path d="M89.519,48.476C72.641,31.268,61.985,39.282,61.985,69.69v411.345c0,31.4,11.787,38.895,30.268,20.084
				c48.466-49.361,142.851-145.539,191.035-194.57c18.196-18.573,18.008-42.382-0.52-61.193
				C233.501,195.192,136.852,96.706,89.519,48.476z M373.004-0.226v511.951h76.328V-0.226H373.004z"/>
		</g>
	</g>
</g>
</svg>
