<?xml version="1.0" encoding="utf-8"?>
<!-- Generator: Adobe Illustrator 16.0.0, SVG Export Plug-In . SVG Version: 6.00 Build 0)  -->
<!DOCTYPE svg PUBLIC "-//W3C//DTD SVG 1.1//EN" "http://www.w3.org/Graphics/SVG/1.1/DTD/svg11.dtd">
<svg version="1.1" xmlns="http://www.w3.org/2000/svg" xmlns:xlink="http://www.w3.org/1999/xlink" x="0px" y="0px" width="512px"
	 height="512px" viewBox="0 0 512 512" enable-background="new 0 0 512 512" xml:space="preserve">
<g id="レイヤー_1">
</g>
<g id="レイヤー_2">
</g>
<g id="レイヤー_3">
	<g id="off_2_">
		<g>
			<path d="M255.328,78.091L255.328,78.091c0.009,0,0.019,0,0.028,0H255.328z M255.328,154.674v0.036h133.896v51.043l121.428-89.371
				L389.224,27.037v51.054H255.356v76.582C255.347,154.673,255.337,154.674,255.328,154.674z M102.192,78.091H0.083v76.582h102.109
				V78.091z M389.224,328.554H255.328v86.204h133.896V461l121.428-89.345L389.224,282.31V328.554z M255.328,78.092
				C156.436,78.14,153.24,333.363,102.192,333.363H0.083v76.582h102.109c124.423,0,102.115-255.177,153.136-255.271V78.092z"/>
		</g>
	</g>
</g>
</svg>
