<?xml version="1.0" encoding="utf-8"?>
<!-- Generator: Adobe Illustrator 16.0.0, SVG Export Plug-In . SVG Version: 6.00 Build 0)  -->
<!DOCTYPE svg PUBLIC "-//W3C//DTD SVG 1.1//EN" "http://www.w3.org/Graphics/SVG/1.1/DTD/svg11.dtd">
<svg version="1.1" id="レイヤー_1" xmlns="http://www.w3.org/2000/svg" xmlns:xlink="http://www.w3.org/1999/xlink" x="0px"
	 y="0px" width="512px" height="511.996px" viewBox="0 0 512 511.996" enable-background="new 0 0 512 511.996"
	 xml:space="preserve">
<g id="レイヤー_1_1_" display="none">
	<path display="inline" d="M343.253,182.217c0,0,35.177-9.443,64.354-18.006c11.671-3.422,19.659-6.396,14.243,4.483
		c-3.29,6.611-59.357,91.115-161.758,121.481c11.366,0.271,43.054-2.905,60.464-11.561c17.199-8.556,26.938-17.009,37.618-20.337
		c3.146-0.979,6.515,8.904-8.775,32.56c-3.094,4.784-6.391,10.265-14.531,18.089c-8,7.952-17.158,17.664-34.789,31.836
		c-16.179,13.338-32.853,25.647-46.343,32.668c-0.188,0.104-5.147,3.106-5.332,3.204c-14.757,8.863-25.607,13.904-41.683,19.749
		c-53.504,19.454-70.531,12.641-76.367,14.104c-4.58,1.145-28.028,40.042-37.914,56.727c-0.76,1.283-1.418,2.399-2.002,3.393l0,0
		c0,0-0.571,1.301-1.646,2.801c-0.444,0.767-0.753,1.287-0.753,1.287s-0.441,0.154-0.604,0.21c-1.527,1.579-3.601,3.142-6.717,3.686
		c-7.309,1.282-10.084-0.89-12.082-3.135c-0.018-0.021,0.008-0.066-0.008-0.092c-2.251-1.633-3.604-4.483-2.953-9.424
		c2.432-18.479,122.283-220.677,231.993-325.871c0,0,3.896-5.832-11.188-1.944c-15.08,3.895-54.771,26.28-127.062,121.438
		c-26.723,35.174-77.558,154.101-79.462,93.428c0,0,10.578-105.255,30.282-148.62c29.607-65.156,61.656-88.292,84.65-106.57
		c0,0,25.818-16.834,25.334-10.506c-0.486,6.323-17.828,57.206-17.828,63.527c0,0,79.708-120.181,194.98-117.751
		C512.648,35.498,395.779,159.354,343.253,182.217L343.253,182.217z"/>
	<rect display="inline" fill="none" stroke="#000000" stroke-miterlimit="10" width="512" height="511.996"/>
</g>
<g id="シェイプ_32">
	<g>
		<path d="M1.835,63.056v366.896h508.334V63.056H1.835z M469.193,87.183L283.899,269.031c-20.515,20.101-35.28,20.101-55.782,0
			L42.836,87.183H469.193z M26.43,103.286l145.961,143.217L26.43,389.721V103.286z M42.836,405.796L188.77,262.578
			c28.69,28.181,47.564,47.482,67.225,47.482c19.688,0,38.547-19.302,67.224-47.482l145.975,143.218H42.836z M485.573,389.721
			l-145.92-143.218l145.92-143.217V389.721z"/>
	</g>
</g>
</svg>
