<?xml version="1.0" encoding="utf-8"?>
<!-- Generator: Adobe Illustrator 15.0.2, SVG Export Plug-In . SVG Version: 6.00 Build 0)  -->
<!DOCTYPE svg PUBLIC "-//W3C//DTD SVG 1.1//EN" "http://www.w3.org/Graphics/SVG/1.1/DTD/svg11.dtd">
<svg version="1.1" id="レイヤー_1" xmlns="http://www.w3.org/2000/svg" xmlns:xlink="http://www.w3.org/1999/xlink" x="0px"
	 y="0px" width="511.998px" height="512px" viewBox="0 0 511.998 512" enable-background="new 0 0 511.998 512"
	 xml:space="preserve">
<path fill="#231815" d="M348.433,256l144.42-144.421c25.525-25.525,25.525-66.908,0-92.434c-25.523-25.528-66.911-25.528-92.434,0
	l-144.422,144.42L111.578,19.146c-25.522-25.528-66.91-25.528-92.434,0c-25.525,25.525-25.525,66.908,0,92.434L163.565,256
	L19.145,400.42c-25.525,25.526-25.525,66.908,0,92.434C31.906,505.619,48.633,512,65.361,512c16.728,0,33.456-6.381,46.217-19.146
	l144.421-144.42l144.422,144.42C413.182,505.619,429.909,512,446.636,512s33.456-6.381,46.217-19.146
	c25.525-25.524,25.525-66.906,0-92.434L348.433,256z"/>
</svg>
