<?xml version="1.0" encoding="utf-8"?>
<!-- Generator: Adobe Illustrator 15.0.2, SVG Export Plug-In . SVG Version: 6.00 Build 0)  -->
<!DOCTYPE svg PUBLIC "-//W3C//DTD SVG 1.1//EN" "http://www.w3.org/Graphics/SVG/1.1/DTD/svg11.dtd">
<svg version="1.1" id="レイヤー_1" xmlns="http://www.w3.org/2000/svg" xmlns:xlink="http://www.w3.org/1999/xlink" x="0px"
	 y="0px" width="512px" height="512px" viewBox="0 0 512 512" enable-background="new 0 0 512 512" xml:space="preserve">
<g>
	<path fill="#040000" d="M242.363,0h24.12c27.018,0,48.916,21.902,48.916,48.915v414.167c0,27.015-21.898,48.918-48.916,48.918
		h-24.12c-27.016,0-48.917-21.901-48.917-48.918V48.915C193.446,21.901,215.347,0,242.363,0z"/>
	<path fill="#040000" d="M49.975,192.394h412.052c27.018,0,48.914,21.898,48.914,48.915v23.074
		c0,27.015-21.896,48.916-48.914,48.916H49.975c-27.016-0.004-48.917-21.901-48.917-48.918v-23.074
		C1.058,214.293,22.959,192.394,49.975,192.394z"/>
</g>
</svg>
