<?xml version="1.0" encoding="utf-8"?>
<!-- Generator: Adobe Illustrator 16.0.0, SVG Export Plug-In . SVG Version: 6.00 Build 0)  -->
<!DOCTYPE svg PUBLIC "-//W3C//DTD SVG 1.1//EN" "http://www.w3.org/Graphics/SVG/1.1/DTD/svg11.dtd">
<svg version="1.1" id="レイヤー_1" xmlns="http://www.w3.org/2000/svg" xmlns:xlink="http://www.w3.org/1999/xlink" x="0px"
	 y="0px" width="512px" height="511.996px" viewBox="0 0 512 511.996" enable-background="new 0 0 512 511.996"
	 xml:space="preserve">
<g id="レイヤー_1_1_" display="none">
	<path display="inline" d="M343.253,182.217c0,0,35.177-9.444,64.355-18.006c11.671-3.422,19.66-6.396,14.244,4.483
		c-3.29,6.611-59.359,91.115-161.757,121.482c11.365,0.271,43.053-2.906,60.463-11.561c17.199-8.555,26.936-17.008,37.618-20.336
		c3.146-0.98,6.514,8.904-8.776,32.559c-3.093,4.784-6.39,10.264-14.532,18.088c-8,7.952-17.158,17.664-34.789,31.836
		c-16.177,13.338-32.851,25.648-46.342,32.668c-0.188,0.104-5.148,3.107-5.332,3.204c-14.757,8.864-25.608,13.905-41.683,19.749
		c-53.504,19.454-70.531,12.641-76.367,14.104c-4.58,1.143-28.029,40.041-37.914,56.725c-0.76,1.284-1.418,2.4-2.002,3.392l0,0
		c0,0-0.572,1.301-1.646,2.801c-0.444,0.766-0.753,1.287-0.753,1.287s-0.441,0.155-0.604,0.21c-1.528,1.579-3.601,3.142-6.717,3.685
		c-7.309,1.283-10.084-0.889-12.082-3.134c-0.018-0.021,0.008-0.067-0.008-0.092c-2.251-1.632-3.604-4.483-2.953-9.423
		c2.432-18.479,122.283-220.676,231.993-325.871c0,0,3.896-5.832-11.187-1.944c-15.08,3.894-54.771,26.28-127.063,121.438
		c-26.722,35.174-77.557,154.1-79.462,93.428c0,0,10.578-105.256,30.283-148.621c29.607-65.156,61.656-88.292,84.65-106.57
		c0,0,25.818-16.834,25.334-10.506c-0.486,6.323-17.828,57.206-17.828,63.527c0,0,79.708-120.181,194.98-117.751
		C512.648,35.498,395.779,159.354,343.253,182.217L343.253,182.217z"/>
	<rect display="inline" fill="none" stroke="#000000" stroke-miterlimit="10" width="512" height="511.996"/>
</g>
<g id="レイヤー_2" display="none">
	<path display="inline" d="M447.361,124.16c-19.441-19.446-45.295-30.154-72.793-30.154c-27.502,0-53.354,10.708-72.797,30.152
		l-45.771,45.77l-28.767,28.764l0.097,0.097l-26.506,26.87l-0.348,0.362c-15.242,16.23-27.332,51.85,1.818,83.461
		c13.984,15.162,30.126,22.754,46.904,22.752c16.227-0.002,33.047-7.105,49.073-21.334c23.325-20.713,35.959-33.437,36.487-33.967
		c7.902-7.979,7.84-20.853-0.135-28.76c-7.98-7.908-20.857-7.844-28.764,0.128c-0.123,0.122-12.359,12.429-34.603,32.181
		c-18.562,16.48-28.379,13.007-39.059,1.418c-11.715-12.702-6.405-22.961-2.03-28.068l40.148-40.695l14.445-14.447l45.77-45.767
		c11.764-11.761,27.399-18.239,44.035-18.239c16.631,0,32.268,6.478,44.028,18.239c11.762,11.761,18.238,27.398,18.238,44.033
		c0,16.631-6.477,32.268-18.238,44.03l-60.721,60.72l-54.656,54.658c-1.157,0.758-2.26,1.641-3.276,2.657
		c-24.281,24.279-63.789,24.279-88.065,0L93.405,240.547c-11.716-11.715-18.184-27.274-18.235-43.833
		c0.062-16.544,6.528-32.086,18.235-43.792c11.759-11.758,27.396-18.236,44.03-18.236c2.642,0,5.246,0.216,7.826,0.541
		c16.447,2.896,33.255,12.661,49.164,28.709c7.912,7.976,20.791,8.031,28.767,0.121c7.976-7.907,8.031-20.786,0.124-28.764
		c-6.356-6.412-12.914-12.083-19.614-17.054c-0.155-0.141-0.292-0.303-0.451-0.439c-0.177-0.146-0.347-0.305-0.523-0.452
		c-15.255-12.558-33.6-20.34-53.185-22.623c-4.752-0.7-9.519-1.099-14.293-1.11c-0.065,0-0.132,0-0.199,0
		c-25.994,0-50.995,10.688-70.413,30.104c-19.443,19.446-30.152,45.3-30.152,72.799c0,0.066,0.004,0.13,0.004,0.197
		c0,0.082-0.006,0.161-0.006,0.243c0.002,27.499,10.711,53.352,30.154,72.797L183.112,388.23
		c19.444,19.442,45.297,30.151,72.796,30.151c0.031,0,0.062-0.002,0.093-0.002c0.03,0,0.059,0.002,0.09,0.002
		c27.5,0,53.354-10.709,72.799-30.151l118.472-118.476c19.446-19.445,30.153-45.298,30.153-72.797
		C477.516,169.457,466.809,143.604,447.361,124.16z"/>
</g>
<g id="シェイプ_31">
	<g>
		<path d="M419.799,103.768c0,0-221.585,53.22-402.622,96.692c0,0-37.799,56.309,5.876,104.104
			c179.915,37.036,396.746,81.668,396.746,81.668S623.63,248.623,419.799,103.768z M408.876,342.777
			c-30.141,0-54.58-43.786-54.58-97.777c0-53.992,24.439-97.777,54.58-97.777c30.158,0,54.617,43.786,54.617,97.777
			C463.493,298.991,439.034,342.777,408.876,342.777z"/>
	</g>
</g>
</svg>
