<?xml version="1.0" encoding="utf-8"?>
<!-- Generator: Adobe Illustrator 16.0.0, SVG Export Plug-In . SVG Version: 6.00 Build 0)  -->
<!DOCTYPE svg PUBLIC "-//W3C//DTD SVG 1.1//EN" "http://www.w3.org/Graphics/SVG/1.1/DTD/svg11.dtd">
<svg version="1.1" id="レイヤー_1" xmlns="http://www.w3.org/2000/svg" xmlns:xlink="http://www.w3.org/1999/xlink" x="0px"
	 y="0px" width="512px" height="511.996px" viewBox="0 0 512 511.996" enable-background="new 0 0 512 511.996"
	 xml:space="preserve">
<g id="レイヤー_1_1_" display="none">
	<path display="inline" d="M343.253,182.217c0,0,35.177-9.443,64.354-18.006c11.671-3.422,19.659-6.396,14.243,4.483
		c-3.29,6.611-59.357,91.115-161.758,121.481c11.366,0.271,43.054-2.905,60.464-11.561c17.199-8.556,26.938-17.009,37.618-20.337
		c3.146-0.979,6.515,8.904-8.775,32.56c-3.094,4.784-6.391,10.265-14.531,18.089c-8,7.952-17.158,17.664-34.789,31.836
		c-16.179,13.338-32.853,25.647-46.343,32.668c-0.188,0.104-5.147,3.106-5.332,3.204c-14.757,8.863-25.607,13.904-41.683,19.749
		c-53.504,19.454-70.531,12.641-76.367,14.104c-4.58,1.145-28.028,40.042-37.914,56.727c-0.76,1.283-1.418,2.399-2.002,3.393l0,0
		c0,0-0.571,1.301-1.646,2.801c-0.444,0.767-0.753,1.287-0.753,1.287s-0.441,0.154-0.604,0.21c-1.527,1.579-3.601,3.142-6.717,3.686
		c-7.309,1.282-10.084-0.89-12.082-3.135c-0.018-0.021,0.008-0.066-0.008-0.092c-2.251-1.633-3.604-4.483-2.953-9.424
		c2.432-18.479,122.283-220.677,231.993-325.871c0,0,3.896-5.832-11.188-1.944c-15.08,3.895-54.771,26.28-127.062,121.438
		c-26.723,35.174-77.558,154.101-79.462,93.428c0,0,10.578-105.255,30.282-148.62c29.607-65.156,61.656-88.292,84.65-106.57
		c0,0,25.818-16.834,25.334-10.506c-0.486,6.323-17.828,57.206-17.828,63.527c0,0,79.708-120.181,194.98-117.751
		C512.648,35.498,395.779,159.354,343.253,182.217L343.253,182.217z"/>
	<rect display="inline" fill="none" stroke="#000000" stroke-miterlimit="10" width="512" height="511.996"/>
</g>
<g id="長方形_55">
	<g>
		<path d="M421.862,278.123c-7.8-10.601-7.942-24.517-6.878-33.717c11.451-9.715,18.223-22.957,19.57-30.81
			c0.354-1.985,0.744-4.361,1.17-6.984c0.283-0.39,0.639-0.904,1.046-1.489c1.259,0.993,2.89,1.596,4.733,1.596
			c4.769,0,9.183-3.847,9.856-8.58l2.624-17.993c0.479-3.262-0.958-6.08-3.457-7.516c1.896-7.197,3.58-15.547,4.697-25.244
			c4.254-36.695-24.605-48.076-24.605-48.076s-8.898-25.314-48.359-25.314c-39.443,0-67.859,32.068-67.859,66.654
			c0,11.824,1.365,22.336,3.279,31.377c-3.314,1.117-5.406,4.308-4.91,8.119l2.393,17.993c0.621,4.733,5,8.58,9.768,8.58
			c1.702,0,3.244-0.514,4.468-1.4c0.284,0.496,0.496,0.904,0.673,1.205c0.426,2.677,0.834,5.07,1.17,7.073
			c1.383,7.889,8.19,21.202,19.748,30.952c1.047,9.201,0.869,23.028-6.895,33.575c-12.729,17.302-90.772,34.16-88.229,140.878
			h254.242C512.643,312.283,434.59,295.425,421.862,278.123z M128.903,146.694H74.445v72.611H1.835v54.457h72.61v72.611h54.458
			v-72.611h72.61v-54.457h-72.61V146.694z"/>
	</g>
</g>
</svg>
